:FULLY-SPECIFIED
:DEGREES
300
root 4.54035 16.3894 -1.81229 -77.5806 -86.7709 95.5512
lowerback -7.36949 -1.36547 -0.828613
upperback -4.7408 -1.91497 0.345813
thorax -0.724054 -1.00065 0.694627
lowerneck -15.1298 -0.342972 1.36237
upperneck 19.4333 -0.959122 -0.0628974
head 8.54772 -0.421714 -0.369389
rclavicle -1.03368e-014 1.98785e-015
rhumerus -41.9892 -9.82568 -75.8144
rradius 30.4128
rwrist 20.8824
rhand -24.9046 -5.98844
rfingers 7.12502
rthumb 1.60375 -35.9622
lclavicle -1.03368e-014 1.98785e-015
lhumerus -29.3014 -15.4432 89.076
lradius 44.5573
lwrist -4.46622
lhand -39.389 -2.64903
lfingers 7.12502
lthumb -12.3787 26.9645
rfemur -43.428 14.3068 10.148
rtibia 14.9458
rfoot -4.84097 -25.1314
rtoes -10.3404
lfemur -9.72988 -18.5112 -29.095
ltibia 13.0641
lfoot -14.5867 22.1985
ltoes -12.2821
301
root 4.53208 16.3753 -1.82948 -78.2966 -86.6059 96.2324
lowerback -7.47772 -1.38484 -0.878112
upperback -4.76709 -1.93924 0.259248
thorax -0.69264 -1.01404 0.629216
lowerneck -15.0705 -0.306526 1.38145
upperneck 19.5359 -0.902624 -0.131018
head 8.57168 -0.402042 -0.389357
rclavicle 0 -1.35174e-014
rhumerus -42.01 -10.051 -75.7151
rradius 30.2404
rwrist 21.1974
rhand -24.8829 -5.92981
rfingers 7.12502
rthumb 1.62468 -35.9034
lclavicle 0 -1.35174e-014
lhumerus -29.4772 -15.1919 89.0125
lradius 44.4785
lwrist -4.53178
lhand -39.4872 -2.66148
lfingers 7.12502
lthumb -12.4734 26.9463
rfemur -42.992 13.0202 11.4178
rtibia 16.1318
rfoot -4.9924 -23.4382
rtoes -10.7211
lfemur -9.37375 -17.9393 -29.3707
ltibia 13.6148
lfoot -14.9411 21.5493
ltoes -13.2162
302
root 4.52284 16.3592 -1.84713 -78.7783 -86.4743 96.7698
lowerback -7.64399 -1.37803 -0.873614
upperback -4.84578 -1.93446 0.17414
thorax -0.685666 -1.01507 0.536372
lowerneck -15.0557 -0.298923 1.43239
upperneck 19.6683 -0.888142 -0.22934
head 8.61326 -0.402811 -0.430069
rclavicle -1.19271e-014 -2.38542e-015
rhumerus -42.1035 -10.2158 -75.6309
rradius 30.1677
rwrist 21.3832
rhand -24.8567 -5.86755
rfingers 7.12502
rthumb 1.64999 -35.8409
lclavicle -1.19271e-014 -2.38542e-015
lhumerus -29.741 -14.9971 89.011
lradius 44.4295
lwrist -4.52044
lhand -39.3835 -2.50367
lfingers 7.12502
lthumb -12.3735 27.1102
rfemur -42.6086 11.8535 12.5318
rtibia 17.2183
rfoot -5.50194 -21.7804
rtoes -10.6639
lfemur -9.06316 -17.2949 -29.5709
ltibia 14.0142
lfoot -15.0624 20.8389
ltoes -14.4162
303
root 4.51208 16.3685 -1.86647 -77.5164 -86.4616 95.5574
lowerback -7.76993 -1.42565 -0.813199
upperback -4.92748 -2.0057 0.199505
thorax -0.70086 -1.05367 0.521561
lowerneck -15.034 -0.258658 1.34968
upperneck 19.7566 -0.807571 -0.264884
head 8.64008 -0.375645 -0.419373
rclavicle 2.70347e-014 -1.23246e-014
rhumerus -42.1757 -10.1984 -75.5685
rradius 30.1876
rwrist 21.3858
rhand -24.8262 -5.9272
rfingers 7.12502
rthumb 1.67943 -35.9003
lclavicle 2.70347e-014 -1.23246e-014
lhumerus -30.07 -14.6126 89.0689
lradius 44.3531
lwrist -4.51454
lhand -39.428 -2.49934
lfingers 7.12502
lthumb -12.4163 27.1119
rfemur -42.3498 11.5272 13.0045
rtibia 17.9431
rfoot -5.32384 -21.3238
rtoes -10.569
lfemur -8.79473 -16.7299 -29.564
ltibia 14.4805
lfoot -15.1435 19.9676
ltoes -15.3217
304
root 4.50117 16.3797 -1.88748 -76.6615 -86.3267 94.7838
lowerback -7.90551 -1.43616 -0.839819
upperback -5.03961 -2.02391 0.134943
thorax -0.743671 -1.06564 0.467017
lowerneck -14.9384 -0.246875 1.38831
upperneck 19.7798 -0.777852 -0.372617
head 8.63009 -0.37114 -0.45855
rclavicle -2.46493e-014 2.26615e-014
rhumerus -42.3352 -10.4539 -75.411
rradius 30.1278
rwrist 21.7853
rhand -24.9387 -5.83699
rfingers 7.12502
rthumb 1.57082 -35.811
lclavicle -2.46493e-014 2.26615e-014
lhumerus -30.4235 -14.2185 89.0931
lradius 44.1709
lwrist -4.60192
lhand -39.4265 -2.67249
lfingers 7.12502
lthumb -12.4149 26.9388
rfemur -42.4515 11.8299 12.7277
rtibia 18.4605
rfoot -4.78539 -22.0661
rtoes -9.15492
lfemur -8.52306 -16.293 -29.6458
ltibia 14.7922
lfoot -15.1508 19.1177
ltoes -16.7027
